<svg width="146" height="122" viewBox="0 0 146 122" fill="none" xmlns="http://www.w3.org/2000/svg">
<g clip-path="url(#clip0_1034_6502)">
<path d="M7.87648 111.001V88.7747C7.87648 86.7727 6.25125 85.1367 4.23853 85.1367C2.22582 85.1367 0.600586 86.762 0.600586 88.7747V114.251C0.600586 118.266 3.85106 121.516 7.86572 121.516H24.3872C26.3891 121.516 28.0251 119.891 28.0251 117.878C28.0251 115.866 26.3999 114.24 24.3872 114.24H11.127C9.32951 114.24 7.87648 112.787 7.87648 110.99" fill="white"/>
<path d="M35.0212 121.527C33.0193 121.527 31.3833 119.902 31.3833 117.889V88.7747C31.3833 86.7727 33.0085 85.1367 35.0212 85.1367C37.034 85.1367 38.6592 86.762 38.6592 88.7747V117.889C38.6592 119.891 37.034 121.527 35.0212 121.527Z" fill="white"/>
<path d="M66.0514 92.9077H49.1963C45.1816 92.9077 41.9312 96.1582 41.9312 100.173V117.889C41.9312 119.891 43.5564 121.527 45.5691 121.527C47.5818 121.527 49.207 119.902 49.207 117.889V101.54C49.207 100.786 49.8205 100.173 50.574 100.173H64.6845C65.4379 100.173 66.0514 100.786 66.0514 101.54V117.889C66.0514 119.891 67.6766 121.527 69.6893 121.527C71.7021 121.527 73.3273 119.902 73.3273 117.889V100.173C73.3273 96.1582 70.0768 92.9077 66.0622 92.9077" fill="white"/>
<path d="M99.2878 103.585H85.4141C84.5638 103.585 83.875 102.896 83.875 102.046V101.723C83.875 100.872 84.5638 100.184 85.4141 100.184H99.2878C100.138 100.184 100.838 100.872 100.838 101.723V102.046C100.838 102.896 100.149 103.585 99.2878 103.585ZM100.838 92.9077H83.875C79.8603 92.9077 76.6099 96.1582 76.6099 100.173V114.251C76.6099 118.266 79.8603 121.516 83.875 121.516H104.465C106.467 121.516 108.103 119.891 108.103 117.878C108.103 115.866 106.478 114.24 104.465 114.24H85.4141C84.5638 114.24 83.875 113.551 83.875 112.701V112.378C83.875 111.528 84.5638 110.839 85.4141 110.839H100.827C104.842 110.839 108.092 107.589 108.092 103.574V100.162C108.092 96.1474 104.842 92.897 100.827 92.897" fill="white"/>
<path d="M138.692 99.9468H118.543V93.9517C118.543 93.1015 119.232 92.4126 120.083 92.4126H137.142C137.992 92.4126 138.692 93.1015 138.692 93.9517V99.9468ZM138.692 85.1367H118.543C114.529 85.1367 111.278 88.3872 111.278 92.4019V117.878C111.278 119.88 112.904 121.516 114.916 121.516C116.929 121.516 118.554 119.891 118.554 117.878V108.751C118.554 107.901 119.243 107.212 120.093 107.212H137.153C138.003 107.212 138.703 107.901 138.703 108.751V117.878C138.703 119.88 140.328 121.516 142.341 121.516C144.354 121.516 145.979 119.891 145.979 117.878V92.4019C145.979 88.3872 142.728 85.1367 138.714 85.1367" fill="white"/>
<path d="M109.997 69.5299C104.594 70.9398 99.1478 70.8753 94.0891 69.5837C99.9335 71.3058 106.295 71.4995 112.613 69.8528C131.147 65.0094 142.244 46.0554 137.4 27.5213C132.557 8.99787 113.603 -2.09895 95.0793 2.74447C76.5452 7.58789 65.4484 26.5418 70.2918 45.076C71.1528 48.3587 72.4552 51.4047 74.1127 54.1709C72.8534 51.8998 71.8632 49.4351 71.1744 46.8088C66.7292 29.8031 76.9111 12.4206 93.9062 7.97537C110.901 3.53018 128.294 13.7121 132.74 30.7072C137.185 47.713 127.003 65.0955 110.008 69.5406" fill="white"/>
<path d="M140.468 39.3176C140.468 38.9625 140.457 38.5965 140.435 38.2413C140.425 37.9077 140.403 37.574 140.382 37.2296C140.36 36.9713 140.349 36.7022 140.328 36.4439C140.285 36.0026 140.242 35.5613 140.199 35.1092C140.188 35.0016 140.166 34.8832 140.156 34.7756C140.005 33.5916 139.8 32.4185 139.531 31.2345C138.563 26.9185 136.937 22.9361 134.795 19.352C136.324 22.1181 137.529 25.1426 138.315 28.3715C142.997 47.4546 131.545 67.0435 112.623 72.3175C92.6577 77.882 72.0786 65.8058 67.2028 45.6571C62.6393 26.757 73.8652 7.38336 92.5393 1.94796C99.0833 0.0428808 105.703 0.053644 111.816 1.6143C105.1 -0.355356 97.781 -0.592145 90.5159 1.30217C79.559 4.16517 70.8623 11.3227 65.7606 20.5036L65.5884 20.805C65.5453 20.8911 65.4915 20.9772 65.4485 21.0633L38.885 69.8312C38.7128 70.111 39.0787 70.3909 39.3047 70.1649L61.4123 47.6268C61.7029 49.0691 62.0688 50.479 62.4993 51.8567L35.8713 77.8928C35.2147 78.5386 35.204 79.5934 35.8498 80.2499C36.1727 80.5836 36.6139 80.7558 37.0445 80.7558C37.475 80.7558 37.884 80.5944 38.2069 80.2822L63.8017 55.2471C64.4475 56.7863 65.1686 58.2716 65.9758 59.6923L47.7646 77.9036C47.108 78.5494 47.108 79.6149 47.7646 80.2607C48.0875 80.5836 48.518 80.745 48.9485 80.745C49.3791 80.745 49.7988 80.5836 50.1325 80.2607L67.8163 62.5768C68.5805 63.6854 69.3985 64.7402 70.2596 65.752L58.2048 77.3977C57.5375 78.0435 57.5268 79.0983 58.1618 79.7548C58.4847 80.0993 58.926 80.2607 59.3565 80.2607C59.787 80.2607 60.196 80.11 60.5189 79.7979L72.5306 68.1952C73.3486 69.0024 74.1881 69.7666 75.0707 70.4985L67.6764 77.8928C67.0306 78.5386 67.0306 79.6041 67.6764 80.2499C67.9993 80.5728 68.4298 80.7343 68.8604 80.7343C69.2909 80.7343 69.7107 80.5728 70.0443 80.2499L77.74 72.5543C78.558 73.1247 79.4083 73.6736 80.2693 74.1903L74.1774 80.5405C73.9944 80.7128 74.1343 81.0249 74.3819 81.0034L102.56 79.7548L102.441 79.7118C113.377 79.2059 123.161 74.3087 130.07 66.7314C130.447 66.3116 130.824 65.8919 131.179 65.4614L131.201 65.4291C136.442 59.1219 139.693 51.2755 140.36 42.9771C140.382 42.708 140.403 42.4282 140.425 42.1484C140.446 41.8577 140.446 41.5564 140.457 41.2658C140.468 40.8998 140.478 40.5231 140.489 40.1464C140.489 39.8666 140.489 39.5867 140.489 39.3069" fill="white"/>
<mask id="mask0_1034_6502" style="mask-type:luminance" maskUnits="userSpaceOnUse" x="72" y="11" width="59" height="58">
<path d="M79.3654 20.8806C68.839 32.9138 70.0552 51.2112 82.0884 61.7483C94.1216 72.2747 112.419 71.0584 122.956 59.0252C133.483 46.992 132.266 28.6946 120.233 18.1683C114.744 13.3571 107.942 11 101.172 11C93.1099 11 85.0914 14.3473 79.3654 20.8913" fill="white"/>
</mask>
<g mask="url(#mask0_1034_6502)">
<path d="M123.333 10.2682H120.857C120.847 10.1282 120.793 9.99909 120.696 9.90222C120.459 9.66543 120.082 9.66543 119.856 9.90222C119.749 10.0099 119.706 10.139 119.684 10.2789H84.6286L84.6717 10.0529C84.6717 9.71925 84.4026 9.45017 84.0797 9.45017C83.8537 9.45017 83.6599 9.59009 83.5523 9.78383C83.5308 9.47169 83.2832 9.21338 82.9603 9.21338C82.6375 9.21338 82.3684 9.48246 82.3684 9.81612C82.3684 10.0099 82.4652 10.1713 82.6052 10.2789H71.616V37.1007C71.5299 37.0577 71.4438 37.0254 71.3469 37.0254C71.0132 37.0254 70.7549 37.2945 70.7549 37.6281C70.7549 37.9618 71.024 38.2309 71.3469 38.2309C71.4438 38.2309 71.5406 38.1986 71.616 38.1555V61.4362C71.5191 61.2317 71.3146 61.0918 71.0778 61.0918C70.7442 61.0918 70.4858 61.3609 70.4858 61.6945C70.4858 62.0282 70.7549 62.2973 71.0778 62.2973C71.3146 62.2973 71.5191 62.1574 71.616 61.9421V69.8423H76.3302C76.3841 70.1113 76.6208 70.3266 76.9007 70.3266L77.0837 70.2943V70.3481C77.0837 70.6818 77.342 70.9509 77.6756 70.9509C78.0093 70.9509 78.2676 70.6818 78.2676 70.3481C78.2676 70.1329 78.1492 69.9606 77.9878 69.853H99.6648C99.7509 70.0898 99.9661 70.2512 100.224 70.2512C100.483 70.2512 100.698 70.079 100.784 69.853H101.764L101.742 69.9391C101.742 70.2728 102.011 70.5419 102.345 70.5419C102.678 70.5419 102.937 70.2728 102.937 69.9391L102.915 69.853H123.365C123.301 69.9499 123.258 70.0575 123.258 70.1759C123.258 70.5096 123.527 70.7786 123.86 70.7786C124.194 70.7786 124.452 70.5096 124.452 70.1759C124.452 70.0467 124.409 69.9391 124.345 69.853H131.093V10.2682H123.344H123.333ZM107.92 68.3139C107.586 68.3139 107.328 68.583 107.328 68.9166C107.328 69.1642 107.479 69.3687 107.683 69.4655H102.722C102.614 69.3687 102.485 69.3149 102.334 69.3149C102.183 69.3149 102.043 69.3794 101.947 69.4655H101.538V62.5125H108.566V69.4655H108.178C108.383 69.3687 108.534 69.1642 108.534 68.9166C108.534 68.583 108.265 68.3139 107.942 68.3139H107.92ZM82.5729 54.6985C82.5191 54.4186 82.293 54.2034 82.0024 54.2034C81.7118 54.2034 81.475 54.4186 81.4212 54.6985H79.3439V54.1065C79.4516 54.2357 79.613 54.3325 79.796 54.3325C80.1189 54.3325 80.388 54.0635 80.388 53.7298C80.388 53.3961 80.1189 53.1271 79.796 53.1271C79.613 53.1271 79.4516 53.2132 79.3439 53.3531V47.7562H84.6609C84.5425 47.8639 84.4564 48.0253 84.4564 48.1975C84.4564 48.5312 84.7255 48.8003 85.0484 48.8003C85.3713 48.8003 85.6511 48.5312 85.6511 48.1975C85.6511 48.0253 85.5758 47.8639 85.4466 47.7562H86.3723V49.4353V54.7093H82.5621L82.5729 54.6985ZM96.8125 18.136L97.0493 18.0822H101.161V25.0352H94.1325V22.8826C94.4231 22.8503 94.6599 22.6027 94.6599 22.3014C94.6599 22 94.4231 21.7525 94.1325 21.7094V18.093H96.5757L96.8125 18.1468V18.136ZM123.247 28.361L123.333 28.3395V29.2436V32.4833H116.305V25.5303H123.333V27.1663L123.247 27.1448C122.913 27.1448 122.644 27.4139 122.644 27.7475C122.644 28.0812 122.913 28.3503 123.247 28.3503V28.361ZM123.107 37.6927L123.333 37.6496V39.9422H116.305V32.8493H123.333V36.5303L123.107 36.4872C122.773 36.4872 122.515 36.7563 122.515 37.09C122.515 37.4236 122.784 37.6927 123.107 37.6927ZM123.247 54.7093C123.139 54.5693 122.978 54.4725 122.784 54.4725C122.59 54.4725 122.429 54.5693 122.321 54.7093H116.305V47.7562H123.333V51.4695V54.7093H123.247ZM109.373 54.7093C109.276 54.5586 109.104 54.4509 108.91 54.4402V47.95L108.996 47.7562H115.939V54.7093H109.373ZM79.3439 32.86H86.3723V34.679V39.953H79.3439V32.86ZM103.992 54.7093C103.884 54.5586 103.712 54.4509 103.518 54.4509C103.324 54.4509 103.152 54.5586 103.044 54.7093H101.527V47.7562H107.856C107.92 48.0253 108.146 48.2298 108.426 48.2298L108.555 48.2083V54.5586L108.404 54.72H104.002L103.992 54.7093ZM86.7382 32.86H87.4055L87.384 32.9677C87.384 33.3013 87.6531 33.5704 87.976 33.5704C88.2989 33.5704 88.5787 33.3013 88.5787 32.9677L88.5572 32.86H93.7666V39.953H86.7382V32.86ZM94.6061 47.2611L94.6707 47.0028C94.6707 46.6907 94.4339 46.4431 94.1325 46.4109V40.2974H94.2939C94.3908 40.4911 94.5846 40.6203 94.8106 40.6203C95.0366 40.6203 95.2303 40.4911 95.3272 40.2974H101.161V47.2504H94.6061V47.2611ZM94.3801 32.86C94.4662 33.0861 94.6814 33.2475 94.929 33.2475C95.1765 33.2475 95.4026 33.0861 95.4887 32.86H101.161V39.953H95.3918C95.3487 39.6624 95.1119 39.4363 94.8106 39.4363C94.5092 39.4363 94.2724 39.6624 94.2294 39.953H94.1325V32.86H94.3801ZM108.555 32.4941H102.506C102.431 32.2573 102.216 32.0743 101.947 32.0743C101.785 32.0743 101.634 32.1389 101.527 32.2465V28.0812L101.731 28.1242C102.065 28.1242 102.334 27.8552 102.334 27.5215C102.334 27.1879 102.065 26.9188 101.731 26.9188L101.527 26.9618V25.5411H108.555V32.4941ZM108.383 45.5929L108.555 45.5606V47.0566L108.426 47.0351C108.232 47.0351 108.071 47.132 107.963 47.2719H101.527V40.3189H108.555V44.4412L108.383 44.4089C108.06 44.4089 107.791 44.678 107.791 45.0116C107.791 45.3453 108.06 45.6144 108.383 45.6144V45.5929ZM108.189 35.9168C108.329 35.9168 108.448 35.863 108.555 35.7769V38.3815C108.458 38.177 108.254 38.0264 108.017 38.0264C107.683 38.0264 107.414 38.2954 107.414 38.6291C107.414 38.9627 107.683 39.2318 108.017 39.2318C108.254 39.2318 108.458 39.0811 108.555 38.8766V39.9314H101.527V33.0968C101.634 33.2045 101.785 33.269 101.947 33.269C102.216 33.269 102.431 33.0861 102.506 32.8493H108.555V34.8512C108.458 34.7651 108.329 34.7113 108.189 34.7113C107.856 34.7113 107.597 34.9804 107.597 35.314C107.597 35.6477 107.866 35.9168 108.189 35.9168ZM101.161 27.3708L101.129 27.5107L101.161 27.6614V32.4833H95.4994C95.4348 32.225 95.2088 32.0313 94.929 32.0313C94.6491 32.0313 94.4339 32.225 94.3585 32.4833H94.1217V25.5303H101.15V27.3708H101.161ZM108.91 47.2504V45.2484L108.975 44.9901L108.91 44.7318V40.3081H114.669L114.636 40.4804C114.636 40.814 114.905 41.0831 115.228 41.0831C115.551 41.0831 115.831 40.814 115.831 40.4804L115.799 40.3081H115.939V47.2611H108.91V47.2504ZM115.487 39.9314L115.228 39.8669L114.97 39.9314H108.9V32.8385H115.928V39.9314H115.476H115.487ZM108.91 32.4833V29.5773C108.953 29.8571 109.19 30.0831 109.492 30.0831C109.825 30.0831 110.094 29.8141 110.094 29.4804C110.094 29.1467 109.825 28.8777 109.492 28.8777C109.201 28.8777 108.964 29.1037 108.91 29.3835V25.5303H115.939V32.4833H108.91ZM108.555 21.8063V25.0352H103.862L103.884 24.9168C103.884 24.5832 103.615 24.3141 103.281 24.3141C102.948 24.3141 102.689 24.5832 102.689 24.9168L102.711 25.0352H101.527V18.0822H108.555V20.6761C108.318 20.7515 108.135 20.9775 108.135 21.2358C108.135 21.4941 108.308 21.7202 108.555 21.8063ZM93.7773 21.774C93.5943 21.8816 93.4652 22.0646 93.4652 22.2906C93.4652 22.5166 93.5943 22.6996 93.7773 22.8072V25.0352H86.749V18.0822H93.7773V21.774ZM91.4094 25.5303C91.1834 25.6164 91.0219 25.8317 91.0219 26.09C91.0219 26.4237 91.291 26.6927 91.6139 26.6927C91.9368 26.6927 92.2059 26.4237 92.2059 26.09C92.2059 25.8317 92.0444 25.6164 91.8184 25.5303H93.7666V32.4833H88.3312C88.2343 32.408 88.1159 32.3542 87.976 32.3542C87.8361 32.3542 87.7284 32.408 87.6316 32.4833H86.7382V25.5303H91.3987H91.4094ZM86.749 40.2974H93.7773V46.4862C93.5943 46.5938 93.4759 46.7768 93.4759 47.0028L93.5405 47.2611H86.749V40.3081V40.2974ZM94.1433 54.0527C94.2617 53.9451 94.3262 53.7944 94.3262 53.6222C94.3262 53.45 94.2509 53.2993 94.1433 53.1916V47.7562H99.1589L99.1266 47.9392C99.1266 48.2729 99.3957 48.542 99.7186 48.542C100.041 48.542 100.321 48.2729 100.321 47.9392L100.289 47.7562H101.182V54.7093H94.154V54.0635L94.1433 54.0527ZM101.538 55.0644H102.937L102.969 55.2259L102.872 55.2044C102.539 55.2044 102.28 55.4734 102.28 55.8071C102.28 56.1407 102.549 56.4098 102.872 56.4098C103.195 56.4098 103.475 56.1407 103.475 55.8071L103.443 55.6349L103.529 55.6564C103.852 55.6564 104.11 55.3873 104.121 55.0752H108.308C108.318 55.2582 108.415 55.4196 108.566 55.5272V59.9186C108.458 59.7464 108.286 59.6388 108.071 59.6388C107.737 59.6388 107.468 59.9079 107.468 60.2415C107.468 60.5752 107.737 60.8442 108.071 60.8442C108.286 60.8442 108.458 60.7259 108.566 60.5644V62.039H101.538V55.086V55.0644ZM108.932 25.0352V21.8063C109.169 21.7309 109.352 21.5049 109.352 21.2358C109.352 20.9667 109.169 20.7515 108.932 20.6761V18.0822H115.96V25.0352H108.932ZM86.4046 25.0352H79.3762V18.0822H86.4046V19.9012V25.0352ZM84.0582 25.5303C83.9075 25.7671 83.9183 26.0685 84.1228 26.273C84.3488 26.5098 84.7255 26.5098 84.9623 26.273C85.1668 26.0685 85.1776 25.7564 85.0269 25.5196H86.3938V27.1986V32.4726H79.3654V25.5196H84.0474L84.0582 25.5303ZM86.4046 40.2974V42.1164V47.2504H79.3762V40.2974H86.4046ZM86.7597 47.7455H93.7881V48.7572C93.6804 48.6388 93.5298 48.5527 93.3468 48.5527C93.0131 48.5527 92.7441 48.8218 92.7441 49.1555C92.7441 49.4891 93.0131 49.7582 93.3468 49.7582C93.519 49.7582 93.6804 49.6829 93.7881 49.5537V53.0194H93.7343C93.4006 53.0194 93.1315 53.2885 93.1315 53.6222C93.1315 53.9558 93.4006 54.2249 93.7343 54.2249H93.7881V54.6985H86.7597V47.7455ZM94.154 55.9255C94.2509 55.8179 94.3155 55.6779 94.3155 55.5165C94.3155 55.355 94.2509 55.2151 94.154 55.1075V55.0644H101.182V62.0174H94.154V55.9255ZM108.932 55.6241C109.233 55.6134 109.481 55.3658 109.492 55.0644H115.96V62.0174H108.932V55.6241ZM116.326 55.0644H122.214C122.214 55.3981 122.483 55.6672 122.816 55.6672C123.064 55.6672 123.279 55.5165 123.365 55.2905V58.9069V62.0067H116.337V55.0537L116.326 55.0644ZM123.354 47.2504H116.326V40.2974H123.354V44.1506V47.2504ZM123.354 19.4384V21.9354V25.0352H116.326V18.0822H120.491C120.491 18.3082 120.631 18.5127 120.814 18.6096C120.567 18.685 120.384 18.9002 120.384 19.1801C120.384 19.5137 120.653 19.7828 120.976 19.7828C121.299 19.7828 121.568 19.5137 121.568 19.1801C121.568 18.9433 121.428 18.7495 121.234 18.6527C121.482 18.5773 121.654 18.3621 121.665 18.093H123.333V18.3513C123.128 18.4482 122.978 18.6527 122.978 18.9002C122.978 19.1478 123.128 19.3523 123.333 19.4491L123.354 19.4384ZM79.3762 59.0253H79.3977C79.7314 59.0253 79.9897 58.767 79.9897 58.4333C79.9897 58.2503 79.9144 58.0996 79.7852 57.992C79.9144 57.8844 80.0005 57.7229 80.0005 57.54C80.0005 57.2063 79.7314 56.9372 79.3977 56.9372H79.3654V55.0752H81.4858C81.5827 55.2797 81.7872 55.4196 82.0239 55.4196C82.2607 55.4196 82.4545 55.2797 82.5513 55.0752H86.3938V55.538L86.2431 55.5057C85.9094 55.5057 85.6511 55.7748 85.6511 56.1085C85.6511 56.4421 85.9202 56.7112 86.2431 56.7112L86.3938 56.6789V62.0282H79.3654V59.036L79.3762 59.0253ZM86.7705 56.3883C86.8243 56.3022 86.8566 56.2053 86.8566 56.0977C86.8566 55.9901 86.8243 55.8932 86.7705 55.8071V55.0644H93.3468C93.2176 55.1721 93.1315 55.3335 93.1315 55.5165C93.1315 55.8501 93.4006 56.1192 93.7343 56.1192H93.8096V62.0174H86.7813V56.3883H86.7705ZM116.337 10.6341H118.242C118.167 10.731 118.124 10.8494 118.124 10.9785C118.124 11.3122 118.393 11.5813 118.726 11.5813C119.06 11.5813 119.318 11.3122 119.318 10.9785C119.318 10.8494 119.264 10.731 119.2 10.6341H119.813L119.889 10.7525C120.126 10.9893 120.502 10.9893 120.728 10.7525L120.804 10.6341H123.376V14.4873V17.727H121.579C121.471 17.5764 121.299 17.4795 121.105 17.4795C120.911 17.4795 120.75 17.5764 120.642 17.727H117.596C117.661 17.6302 117.704 17.5333 117.704 17.4149C117.704 17.0812 117.435 16.8122 117.101 16.8122C116.767 16.8122 116.509 17.0812 116.509 17.4149C116.509 17.5333 116.552 17.6409 116.617 17.727H116.358V10.6341H116.337ZM108.943 10.6341H115.971V17.727H108.943V10.6341ZM108.587 10.6341V17.727H101.559V10.6341H108.587ZM94.1648 10.6341H101.193V17.727H97.4045L97.4368 17.5441C97.4368 17.2104 97.1677 16.9413 96.8341 16.9413C96.5004 16.9413 96.2421 17.2104 96.2421 17.5441L96.2744 17.727H94.154V10.6341H94.1648ZM93.0992 10.6341C92.7979 10.6664 92.5611 10.914 92.5611 11.2261C92.5611 11.5597 92.8302 11.8288 93.1531 11.8288C93.476 11.8288 93.7558 11.5597 93.7558 11.2261C93.7558 10.914 93.519 10.6664 93.2176 10.6341H93.8096V17.727H86.7813V13.4756C86.9858 13.3787 87.1257 13.1742 87.1257 12.9374C87.1257 12.7006 86.9858 12.4961 86.7813 12.3993V10.6341H93.11H93.0992ZM83.52 10.0852L83.5631 10.2789H83.3693L83.5308 10.0852H83.52ZM79.387 10.6341H84.0259L84.1012 10.6556L84.1766 10.6341H86.4046V12.3562C86.1247 12.41 85.9094 12.6361 85.9094 12.9374C85.9094 13.2388 86.1247 13.4648 86.4046 13.5186V17.727H79.3762V10.6341H79.387ZM71.9927 10.6341H76.1796C76.0827 10.7417 76.0181 10.8817 76.0181 11.0431C76.0181 11.3768 76.2872 11.6459 76.6101 11.6459C76.933 11.6459 77.2021 11.3768 77.2021 11.0431C77.2021 10.8817 77.1375 10.7417 77.0406 10.6341H79.0103V17.727H71.9819V10.6341H71.9927ZM71.9927 18.0822H79.021V25.0352H71.9927V18.0822ZM71.9927 29.0606C72.1003 29.1898 72.2618 29.2651 72.434 29.2651C72.7676 29.2651 73.0259 28.9961 73.0259 28.6624C73.0259 28.3287 72.7569 28.0597 72.434 28.0597C72.251 28.0597 72.1003 28.1458 71.9927 28.2642V25.5303H79.021V32.4833H73.8009C74.113 32.4618 74.3606 32.2142 74.3606 31.8914C74.3606 31.5685 74.0915 31.2886 73.7686 31.2886C73.4457 31.2886 73.1766 31.5577 73.1766 31.8914C73.1766 32.225 73.4242 32.4726 73.7471 32.4833H71.9927V29.0606ZM79.021 32.8493V39.9422H71.9927V32.8493H79.021ZM71.9927 40.2974H79.021V47.2504H71.9927V40.2974ZM71.9927 47.7455H75.5553L75.5122 47.9392C75.5122 48.2729 75.7813 48.542 76.1042 48.542C76.4271 48.542 76.7069 48.2729 76.7069 47.9392L76.6639 47.7455H79.021V51.3727C78.9349 51.3296 78.8488 51.2973 78.7519 51.2973C78.4183 51.2973 78.1492 51.5664 78.1492 51.9001C78.1492 52.2337 78.4183 52.5028 78.7519 52.5028C78.8488 52.5028 78.9349 52.4705 79.021 52.4275V54.6985H71.9927V47.7455ZM71.9927 55.0644H79.021V57.0879C78.9026 57.1955 78.8165 57.357 78.8165 57.5292C78.8165 57.7014 78.8919 57.8629 79.021 57.9705C78.8919 58.0889 78.8058 58.2396 78.8058 58.4225C78.8058 58.6055 78.8919 58.767 79.021 58.8746V62.0067H71.9927V55.0537V55.0644ZM71.9927 62.5125H79.021V63.5673C78.7197 63.5889 78.4721 63.8472 78.4721 64.1593C78.4721 64.4714 78.7089 64.7298 79.021 64.7513V69.4655H77.4604C77.3635 69.2503 77.159 69.0996 76.9114 69.0996C76.6639 69.0996 76.4594 69.2503 76.3625 69.4655H71.9819V62.5125H71.9927ZM79.387 69.4655V64.6544C79.5592 64.5468 79.6776 64.3638 79.6776 64.1485C79.6776 63.9333 79.5592 63.7503 79.387 63.6427V62.5018H86.4153V64.1808V64.6544C86.2754 64.762 86.1893 64.9235 86.1893 65.1172C86.1893 65.311 86.2862 65.4724 86.4153 65.58V69.4548H79.387V69.4655ZM86.7813 65.7307C87.1149 65.7307 87.3732 65.4616 87.3732 65.128C87.3732 64.7943 87.1042 64.5252 86.7813 64.5252V62.5125H93.8096V69.4655H86.7813V65.7307ZM94.1756 62.5125H101.204V69.4655H100.816C100.741 69.218 100.526 69.0242 100.257 69.0242C99.9877 69.0242 99.7616 69.218 99.6863 69.4655H94.1756V62.5125ZM108.953 64.0624C109.061 64.1701 109.212 64.2346 109.373 64.2346C109.707 64.2346 109.976 63.9656 109.976 63.6319C109.976 63.2982 109.707 63.0292 109.373 63.0292C109.212 63.0292 109.061 63.0938 108.953 63.2014V62.5018H115.982V69.4548H108.953V64.0517V64.0624ZM116.348 69.4655V62.5125H123.376V66.2258V69.4655H116.348ZM130.77 69.4655H123.742V65.9245V62.5125H130.77V69.4655ZM130.77 62.0174H123.742V58.6055V55.0644H130.77V62.0174ZM130.77 54.6985H123.742V51.1574V47.7455H130.77V54.6985ZM123.742 47.2504V40.2974H130.77V47.2504H123.742ZM130.77 39.9314H123.742V37.1222V37.0792V37.0361V36.3904V32.8493H130.77V39.9422V39.9314ZM130.77 32.4833H123.742V28.9422V28.1458C123.828 28.0381 123.893 27.909 123.893 27.7583C123.893 27.6076 123.828 27.4785 123.742 27.3708V25.5411H130.77V32.4941V32.4833ZM123.742 25.0352V19.4707C124.011 19.4169 124.226 19.1801 124.226 18.8895C124.226 18.5989 124.022 18.3728 123.742 18.3082V18.0822H130.77V25.0352H123.742ZM130.77 10.6341V17.727H123.742V14.186V10.6449H130.77V10.6341Z" fill="white"/>
<path d="M92.3674 13.8417C92.701 13.8417 92.9593 13.5726 92.9593 13.2497C92.9593 12.9268 92.701 12.6577 92.3674 12.6577C92.0337 12.6577 91.7754 12.9268 91.7754 13.2497C91.7754 13.5726 92.0445 13.8417 92.3674 13.8417Z" fill="white"/>
<path d="M74.2639 49.9087C73.9302 49.9087 73.6719 50.1778 73.6719 50.5007C73.6719 50.8236 73.9302 51.0926 74.2639 51.0926C74.5975 51.0926 74.8558 50.8236 74.8558 50.5007C74.8558 50.1778 74.5867 49.9087 74.2639 49.9087Z" fill="white"/>
<path d="M93.0348 36.896C92.712 36.896 92.4429 37.1651 92.4429 37.488C92.4429 37.8109 92.712 38.0799 93.0348 38.0799C93.3577 38.0799 93.6268 37.8109 93.6268 37.488C93.6268 37.1651 93.3577 36.896 93.0348 36.896Z" fill="white"/>
<path d="M103.045 34.1733C102.722 34.1733 102.453 34.4424 102.453 34.7653C102.453 35.0882 102.722 35.3573 103.045 35.3573C103.368 35.3573 103.637 35.099 103.637 34.7653C103.637 34.4317 103.368 34.1733 103.045 34.1733Z" fill="white"/>
<path d="M122.106 65.1816C121.772 65.1816 121.514 65.4507 121.514 65.7736C121.514 66.0965 121.772 66.3656 122.106 66.3656C122.44 66.3656 122.698 66.0965 122.698 65.7736C122.698 65.4507 122.429 65.1816 122.106 65.1816Z" fill="white"/>
<path d="M88.8156 34.5068C88.4819 34.5068 88.2236 34.7759 88.2236 35.0988C88.2236 35.4217 88.4927 35.6908 88.8156 35.6908C89.1385 35.6908 89.4076 35.4217 89.4076 35.0988C89.4076 34.7759 89.1385 34.5068 88.8156 34.5068Z" fill="white"/>
<path d="M96.5436 52.4814C96.2207 52.4814 95.9517 52.7505 95.9517 53.0734C95.9517 53.3963 96.2207 53.6654 96.5436 53.6654C96.8665 53.6654 97.1356 53.3963 97.1356 53.0734C97.1356 52.7505 96.8665 52.4814 96.5436 52.4814Z" fill="white"/>
<path d="M125.938 57.6258C126.261 57.6258 126.53 57.3675 126.53 57.0339C126.53 56.7002 126.261 56.4419 125.938 56.4419C125.615 56.4419 125.346 56.711 125.346 57.0339C125.346 57.3568 125.615 57.6258 125.938 57.6258Z" fill="white"/>
<path d="M74.2424 35.9598C74.576 35.9598 74.8343 35.7015 74.8343 35.3679C74.8343 35.0342 74.576 34.7759 74.2424 34.7759C73.9087 34.7759 73.6504 35.045 73.6504 35.3679C73.6504 35.6907 73.9195 35.9598 74.2424 35.9598Z" fill="white"/>
<path d="M83.9719 58.3472C83.649 58.3472 83.3799 58.6162 83.3799 58.9391C83.3799 59.262 83.649 59.5311 83.9719 59.5311C84.2947 59.5311 84.5638 59.262 84.5638 58.9391C84.5638 58.6162 84.2947 58.3472 83.9719 58.3472Z" fill="white"/>
<path d="M99.2556 31.4501C99.5892 31.4501 99.8475 31.181 99.8475 30.8581C99.8475 30.5352 99.5892 30.2661 99.2556 30.2661C98.9219 30.2661 98.6636 30.5352 98.6636 30.8581C98.6636 31.181 98.9327 31.4501 99.2556 31.4501Z" fill="white"/>
<path d="M76.8146 67.7972C77.1375 67.7972 77.4066 67.5389 77.4066 67.2053C77.4066 66.8716 77.1375 66.6133 76.8146 66.6133C76.4917 66.6133 76.2227 66.8824 76.2227 67.2053C76.2227 67.5281 76.4917 67.7972 76.8146 67.7972Z" fill="white"/>
<path d="M90.8283 15.5423C91.162 15.5423 91.4203 15.2733 91.4203 14.9504C91.4203 14.6275 91.162 14.3584 90.8283 14.3584C90.4946 14.3584 90.2363 14.6275 90.2363 14.9504C90.2363 15.2733 90.5054 15.5423 90.8283 15.5423Z" fill="white"/>
<path d="M100.569 39.1244C100.892 39.1244 101.161 38.8553 101.161 38.5324C101.161 38.2095 100.892 37.9404 100.569 37.9404C100.246 37.9404 99.9771 38.2095 99.9771 38.5324C99.9771 38.8553 100.246 39.1244 100.569 39.1244Z" fill="white"/>
<path d="M91.4201 56.2056C91.0864 56.2056 90.8281 56.4746 90.8281 56.7975C90.8281 57.1204 91.0972 57.3895 91.4201 57.3895C91.743 57.3895 92.0121 57.1204 92.0121 56.7975C92.0121 56.4746 91.743 56.2056 91.4201 56.2056Z" fill="white"/>
<path d="M82.465 35.7231C82.1421 35.7231 81.873 35.9922 81.873 36.3151C81.873 36.638 82.1421 36.9071 82.465 36.9071C82.7879 36.9071 83.057 36.638 83.057 36.3151C83.057 35.9922 82.7879 35.7231 82.465 35.7231Z" fill="white"/>
<path d="M97.0817 26.5204C97.4046 26.5204 97.6737 26.2513 97.6737 25.9284C97.6737 25.6055 97.4046 25.3364 97.0817 25.3364C96.7588 25.3364 96.4897 25.6055 96.4897 25.9284C96.4897 26.2513 96.7588 26.5204 97.0817 26.5204Z" fill="white"/>
<path d="M92.3459 16.4999C92.6688 16.4999 92.9379 16.2308 92.9379 15.9079C92.9379 15.585 92.6688 15.3159 92.3459 15.3159C92.023 15.3159 91.7539 15.585 91.7539 15.9079C91.7539 16.2308 92.023 16.4999 92.3459 16.4999Z" fill="white"/>
<path d="M83.197 33.5918C82.8741 33.5918 82.605 33.8609 82.605 34.1838C82.605 34.5067 82.8741 34.7757 83.197 34.7757C83.5199 34.7757 83.7889 34.5174 83.7889 34.1838C83.7889 33.8501 83.5199 33.5918 83.197 33.5918Z" fill="white"/>
<path d="M73.2844 52.0078C72.9615 52.0078 72.6924 52.2769 72.6924 52.5998C72.6924 52.9227 72.9507 53.1918 73.2844 53.1918C73.618 53.1918 73.8763 52.9334 73.8763 52.5998C73.8763 52.2661 73.6072 52.0078 73.2844 52.0078Z" fill="white"/>
<path d="M77.7184 40.7603C77.3848 40.7603 77.1265 41.0293 77.1265 41.3522C77.1265 41.6751 77.3955 41.9442 77.7184 41.9442C78.0413 41.9442 78.3104 41.6751 78.3104 41.3522C78.3104 41.0293 78.0413 40.7603 77.7184 40.7603Z" fill="white"/>
<path d="M92.3351 31.5467C92.6688 31.5467 92.9271 31.2777 92.9271 30.9548C92.9271 30.6319 92.658 30.3628 92.3351 30.3628C92.0122 30.3628 91.7432 30.6319 91.7432 30.9548C91.7432 31.2777 92.0122 31.5467 92.3351 31.5467Z" fill="white"/>
<path d="M89.7521 65.2246C89.4292 65.2246 89.1602 65.4937 89.1602 65.8166C89.1602 66.1395 89.4292 66.4086 89.7521 66.4086C90.075 66.4086 90.3441 66.1395 90.3441 65.8166C90.3441 65.4937 90.075 65.2246 89.7521 65.2246Z" fill="white"/>
<path d="M82.3683 28.4149C82.6912 28.4149 82.9603 28.1458 82.9603 27.8229C82.9603 27.5 82.6912 27.231 82.3683 27.231C82.0454 27.231 81.7764 27.5 81.7764 27.8229C81.7764 28.1458 82.0454 28.4149 82.3683 28.4149Z" fill="white"/>
<path d="M122.084 41.6859L122.106 41.5783C122.106 41.2554 121.837 40.9863 121.514 40.9863C121.191 40.9863 120.922 41.2446 120.922 41.5783C120.922 41.7936 121.04 41.9765 121.212 42.0734L121.191 42.181C121.191 42.5147 121.46 42.773 121.783 42.773C122.106 42.773 122.375 42.5039 122.375 42.181C122.375 41.9658 122.257 41.7828 122.084 41.6859Z" fill="white"/>
<path d="M73.0261 39.4686C73.3489 39.4686 73.618 39.1995 73.618 38.8766L73.5857 38.7044L73.6718 38.7259C73.9947 38.7259 74.2638 38.4569 74.2638 38.134C74.2638 37.8111 73.9947 37.542 73.6718 37.542C73.3489 37.542 73.0799 37.8111 73.0799 38.134L73.1122 38.3062L73.0261 38.2846C72.6924 38.2846 72.4341 38.5537 72.4341 38.8766C72.4341 39.1995 72.7032 39.4686 73.0261 39.4686Z" fill="white"/>
<path d="M102.42 42.2349C102.097 42.2349 101.828 42.5039 101.828 42.8268C101.828 43.1497 102.097 43.4188 102.42 43.4188C102.743 43.4188 103.012 43.1497 103.012 42.8268C103.012 42.5039 102.743 42.2349 102.42 42.2349Z" fill="white"/>
<path d="M73.6286 62.4805C73.3057 62.4805 73.0366 62.7495 73.0366 63.0724C73.0366 63.3953 73.3057 63.6644 73.6286 63.6644C73.9515 63.6644 74.2206 63.3953 74.2206 63.0724C74.2206 62.7495 73.9515 62.4805 73.6286 62.4805Z" fill="white"/>
<path d="M122.052 16.4891C122.375 16.4891 122.644 16.22 122.644 15.8971C122.644 15.5743 122.375 15.3052 122.052 15.3052C121.729 15.3052 121.46 15.5743 121.46 15.8971C121.46 16.22 121.729 16.4891 122.052 16.4891Z" fill="white"/>
<path d="M122.644 57.1523C122.311 57.1523 122.052 57.4214 122.052 57.7443C122.052 57.852 122.095 57.9596 122.149 58.0457C122.085 58.1426 122.031 58.261 122.031 58.3793C122.031 58.7022 122.3 58.9713 122.623 58.9713C122.946 58.9713 123.215 58.7022 123.215 58.3793C123.215 58.261 123.172 58.1641 123.118 58.078C123.182 57.9811 123.236 57.8627 123.236 57.7443C123.236 57.4107 122.967 57.1523 122.644 57.1523Z" fill="white"/>
<path d="M110.17 12.2808C109.836 12.2808 109.578 12.5498 109.578 12.8727C109.578 13.1956 109.847 13.4647 110.17 13.4647C110.493 13.4647 110.762 13.1956 110.762 12.8727C110.762 12.5498 110.503 12.2808 110.17 12.2808Z" fill="white"/>
<path d="M114.464 36.4336C114.13 36.4336 113.872 36.7027 113.872 37.0256C113.872 37.3485 114.141 37.6175 114.464 37.6175C114.787 37.6175 115.056 37.3485 115.056 37.0256C115.056 36.7027 114.787 36.4336 114.464 36.4336Z" fill="white"/>
<path d="M107.587 64.8052C107.253 64.8052 106.995 65.0743 106.995 65.3971C106.995 65.72 107.264 65.9891 107.587 65.9891C107.91 65.9891 108.179 65.72 108.179 65.3971C108.179 65.0743 107.91 64.8052 107.587 64.8052Z" fill="white"/>
<path d="M126.358 52.9872C126.691 52.9872 126.95 52.7181 126.95 52.3952C126.95 52.0723 126.68 51.8032 126.358 51.8032C126.035 51.8032 125.766 52.0723 125.766 52.3952C125.766 52.7181 126.035 52.9872 126.358 52.9872Z" fill="white"/>
<path d="M110.31 42.5791C109.987 42.5791 109.718 42.8482 109.718 43.1711C109.718 43.494 109.987 43.763 110.31 43.763C110.633 43.763 110.902 43.494 110.902 43.1711C110.902 42.8482 110.633 42.5791 110.31 42.5791Z" fill="white"/>
<path d="M120.05 66.1611C119.727 66.1611 119.458 66.4302 119.458 66.7531C119.458 67.076 119.727 67.3451 120.05 67.3451C120.373 67.3451 120.642 67.076 120.642 66.7531C120.642 66.4302 120.373 66.1611 120.05 66.1611Z" fill="white"/>
<path d="M111.612 50.2642C111.278 50.2642 111.02 50.5332 111.02 50.8561C111.02 51.179 111.289 51.4481 111.612 51.4481C111.935 51.4481 112.204 51.179 112.204 50.8561C112.204 50.5332 111.935 50.2642 111.612 50.2642Z" fill="white"/>
<path d="M87.9006 23.9266C88.2235 23.9266 88.4925 23.6575 88.4925 23.3347C88.4925 23.0118 88.2235 22.7427 87.9006 22.7427C87.5777 22.7427 87.3086 23.0118 87.3086 23.3347C87.3086 23.6575 87.5777 23.9266 87.9006 23.9266Z" fill="white"/>
<path d="M117.273 20.5687C117.607 20.5687 117.865 20.2996 117.865 19.9767C117.865 19.6538 117.607 19.3848 117.273 19.3848C116.939 19.3848 116.681 19.6538 116.681 19.9767C116.681 20.2996 116.95 20.5687 117.273 20.5687Z" fill="white"/>
<path d="M103.4 28.8241C103.722 28.8241 103.992 28.555 103.992 28.2321C103.992 27.9092 103.722 27.6401 103.4 27.6401C103.077 27.6401 102.808 27.9092 102.808 28.2321C102.808 28.555 103.077 28.8241 103.4 28.8241Z" fill="white"/>
<path d="M118.317 41.4811C118.317 41.1582 118.048 40.8892 117.725 40.8892C117.402 40.8892 117.133 41.1582 117.133 41.4811C117.133 41.804 117.402 42.0731 117.725 42.0731C118.048 42.0731 118.317 41.8148 118.317 41.4811Z" fill="white"/>
<path d="M78.3859 27.7474C78.7088 27.7474 78.9779 27.4783 78.9779 27.1554C78.9779 26.8326 78.7088 26.5635 78.3859 26.5635C78.063 26.5635 77.7939 26.8326 77.7939 27.1554C77.7939 27.4783 78.063 27.7474 78.3859 27.7474Z" fill="white"/>
<path d="M97.1569 14.7347C97.4838 14.7347 97.7489 14.4697 97.7489 14.1428C97.7489 13.8158 97.4838 13.5508 97.1569 13.5508C96.83 13.5508 96.5649 13.8158 96.5649 14.1428C96.5649 14.4697 96.83 14.7347 97.1569 14.7347Z" fill="white"/>
<path d="M107.78 31.6976C108.103 31.6976 108.372 31.4285 108.372 31.1056C108.372 30.7828 108.103 30.5137 107.78 30.5137C107.457 30.5137 107.188 30.7828 107.188 31.1056C107.188 31.4285 107.457 31.6976 107.78 31.6976Z" fill="white"/>
<path d="M113.388 55.8286C113.054 55.8286 112.796 56.0977 112.796 56.4206C112.796 56.7435 113.065 57.0126 113.388 57.0126C113.711 57.0126 113.98 56.7435 113.98 56.4206C113.98 56.0977 113.711 55.8286 113.388 55.8286Z" fill="white"/>
<path d="M128.004 45.4316C127.67 45.4316 127.412 45.69 127.412 46.0236C127.412 46.3573 127.681 46.6156 128.004 46.6156C128.327 46.6156 128.596 46.3465 128.596 46.0236C128.596 45.7007 128.327 45.4316 128.004 45.4316Z" fill="white"/>
<path d="M82.1206 43.7309C82.3467 43.5049 82.3574 43.1281 82.1206 42.8914C81.8946 42.6653 81.5179 42.6546 81.2811 42.8914C81.0443 43.1174 81.0443 43.4941 81.2811 43.7309C81.5179 43.9677 81.8946 43.9677 82.1206 43.7309Z" fill="white"/>
<path d="M104.056 66.8931C103.723 66.8931 103.464 67.1621 103.464 67.485C103.464 67.8079 103.733 68.077 104.056 68.077C104.379 68.077 104.648 67.8079 104.648 67.485C104.648 67.1621 104.379 66.8931 104.056 66.8931Z" fill="white"/>
<path d="M114.647 33.1616C114.324 33.1616 114.055 33.4307 114.055 33.7536C114.055 34.0765 114.324 34.3456 114.647 34.3456C114.97 34.3456 115.239 34.0765 115.239 33.7536C115.239 33.4307 114.97 33.1616 114.647 33.1616Z" fill="white"/>
<path d="M125.259 51.308C125.582 51.308 125.851 51.0389 125.851 50.716C125.851 50.3931 125.582 50.124 125.259 50.124C124.937 50.124 124.667 50.3931 124.667 50.716C124.667 51.0389 124.937 51.308 125.259 51.308Z" fill="white"/>
<path d="M102.646 65.2573C102.323 65.2573 102.054 65.5264 102.054 65.8493C102.054 66.1722 102.323 66.4413 102.646 66.4413C102.969 66.4413 103.238 66.1722 103.238 65.8493C103.238 65.5264 102.969 65.2573 102.646 65.2573Z" fill="white"/>
<path d="M106.822 13.2817C107.145 13.2817 107.414 13.0127 107.414 12.6898L107.382 12.5606C107.49 12.6467 107.619 12.7113 107.759 12.7113C108.082 12.7113 108.351 12.4422 108.351 12.1193C108.351 11.7964 108.082 11.5273 107.759 11.5273C107.436 11.5273 107.167 11.7964 107.167 12.1193L107.199 12.2592C107.092 12.1731 106.962 12.1086 106.822 12.1086C106.489 12.1086 106.23 12.3669 106.23 12.7005C106.23 13.0342 106.5 13.2925 106.822 13.2925V13.2817Z" fill="white"/>
<path d="M112.441 37.4131C112.107 37.4131 111.849 37.6822 111.849 38.0051C111.849 38.328 112.118 38.597 112.441 38.597C112.764 38.597 113.033 38.328 113.033 38.0051C113.033 37.6822 112.764 37.4131 112.441 37.4131Z" fill="white"/>
<path d="M127.057 28.1996C127.38 28.1996 127.649 27.9305 127.649 27.6076C127.649 27.2847 127.38 27.0156 127.057 27.0156C126.734 27.0156 126.465 27.2847 126.465 27.6076C126.465 27.9305 126.734 28.1996 127.057 28.1996Z" fill="white"/>
<path d="M127.1 29.6094C126.777 29.6094 126.508 29.8677 126.508 30.2013C126.508 30.535 126.777 30.7933 127.1 30.7933C127.423 30.7933 127.692 30.5242 127.692 30.2013C127.692 29.8785 127.423 29.6094 127.1 29.6094Z" fill="white"/>
<path d="M113.549 22.1074C113.226 22.1074 112.957 22.3765 112.957 22.6994C112.957 23.0223 113.226 23.2914 113.549 23.2914C113.872 23.2914 114.141 23.0223 114.141 22.6994C114.141 22.3765 113.883 22.1074 113.549 22.1074Z" fill="white"/>
<path d="M128.155 12.9051C128.489 12.9051 128.747 12.6361 128.747 12.3132C128.747 11.9903 128.478 11.7212 128.155 11.7212C127.832 11.7212 127.563 11.9903 127.563 12.3132C127.563 12.6361 127.832 12.9051 128.155 12.9051Z" fill="white"/>
<path d="M118.92 51.3403C118.597 51.3403 118.328 51.6094 118.328 51.9323C118.328 52.2552 118.597 52.5243 118.92 52.5243C119.243 52.5243 119.512 52.2552 119.512 51.9323C119.512 51.6094 119.243 51.3403 118.92 51.3403Z" fill="white"/>
<path d="M105.047 59.5957C104.713 59.5957 104.455 59.8648 104.455 60.1877C104.455 60.5106 104.724 60.7797 105.047 60.7797C105.369 60.7797 105.639 60.5106 105.639 60.1877C105.639 59.8648 105.38 59.5957 105.047 59.5957Z" fill="white"/>
<path d="M124.678 33.8505C125.001 33.8505 125.27 33.5814 125.27 33.2585C125.27 32.9356 125.001 32.6665 124.678 32.6665C124.355 32.6665 124.086 32.9356 124.086 33.2585C124.086 33.5814 124.355 33.8505 124.678 33.8505Z" fill="white"/>
<path d="M73.2092 13.2495C72.8755 13.2495 72.6172 13.5186 72.6172 13.8415C72.6172 14.1644 72.8755 14.4335 73.2092 14.4335C73.5428 14.4335 73.8011 14.1644 73.8011 13.8415C73.8011 13.5186 73.5321 13.2495 73.2092 13.2495Z" fill="white"/>
<path d="M85.0915 34.4531C84.7686 34.4531 84.4995 34.7222 84.4995 35.0451C84.4995 35.368 84.7686 35.6371 85.0915 35.6371C85.4144 35.6371 85.6835 35.368 85.6835 35.0451C85.6835 34.7222 85.4144 34.4531 85.0915 34.4531Z" fill="white"/>
<path d="M96.3065 52.0075C96.3065 51.6738 96.0374 51.4155 95.7145 51.4155C95.3916 51.4155 95.1226 51.6846 95.1226 52.0075C95.1226 52.3304 95.3916 52.5995 95.7145 52.5995C96.0374 52.5995 96.3065 52.3304 96.3065 52.0075Z" fill="white"/>
<path d="M100.235 56.5176C99.9121 56.5176 99.6431 56.7759 99.6431 57.1096C99.6431 57.4432 99.9121 57.7015 100.235 57.7015C100.558 57.7015 100.827 57.4324 100.827 57.1096C100.827 56.7867 100.558 56.5176 100.235 56.5176Z" fill="white"/>
<path d="M85.9631 50.0059C85.6402 50.0059 85.3711 50.2749 85.3711 50.5978C85.3711 50.9207 85.6402 51.1898 85.9631 51.1898C86.286 51.1898 86.555 50.9207 86.555 50.5978C86.555 50.2749 86.286 50.0059 85.9631 50.0059Z" fill="white"/>
<path d="M114.281 25.7563C113.947 25.7563 113.689 26.0254 113.689 26.3483C113.689 26.6712 113.958 26.9403 114.281 26.9403C114.604 26.9403 114.873 26.6712 114.873 26.3483C114.873 26.0254 114.604 25.7563 114.281 25.7563Z" fill="white"/>
<path d="M98.5671 34.7972C98.89 34.7972 99.159 34.5282 99.159 34.2053C99.159 33.8824 98.89 33.6133 98.5671 33.6133C98.2442 33.6133 97.9751 33.8716 97.9751 34.2053C97.9751 34.5389 98.2442 34.7972 98.5671 34.7972Z" fill="white"/>
<path d="M117.338 20.6006C117.015 20.6006 116.746 20.8697 116.746 21.1926C116.746 21.5155 117.015 21.7845 117.338 21.7845C117.661 21.7845 117.93 21.5155 117.93 21.1926C117.93 20.8697 117.661 20.6006 117.338 20.6006Z" fill="white"/>
<path d="M127.961 38.7474C128.284 38.7474 128.553 38.4783 128.553 38.1554C128.553 37.8326 128.284 37.5635 127.961 37.5635C127.638 37.5635 127.369 37.8326 127.369 38.1554C127.369 38.4783 127.638 38.7474 127.961 38.7474Z" fill="white"/>
<path d="M99.1589 57.7983C98.8252 57.7983 98.5669 58.0674 98.5669 58.3903C98.5669 58.7132 98.836 58.9823 99.1589 58.9823C99.4818 58.9823 99.7508 58.724 99.7508 58.3903C99.7508 58.0567 99.4818 57.7983 99.1589 57.7983Z" fill="white"/>
<path d="M118.716 15.6927C119.038 15.6927 119.307 15.4237 119.307 15.1008C119.307 14.7779 119.038 14.5088 118.716 14.5088C118.393 14.5088 118.124 14.7779 118.124 15.1008C118.124 15.4237 118.393 15.6927 118.716 15.6927Z" fill="white"/>
<path d="M77.9985 31.0519C77.9985 31.3748 78.2676 31.6439 78.5905 31.6439C78.9134 31.6439 79.1825 31.3748 79.1825 31.0519C79.1825 30.729 78.9134 30.46 78.5905 30.46C78.2676 30.46 77.9985 30.729 77.9985 31.0519Z" fill="white"/>
<path d="M89.8055 48.0256C89.8055 47.7027 89.5365 47.4336 89.2136 47.4336C88.8907 47.4336 88.6216 47.7027 88.6216 48.0256C88.6216 48.3485 88.8907 48.6175 89.2136 48.6175C89.5365 48.6175 89.8055 48.3485 89.8055 48.0256Z" fill="white"/>
<path d="M118.587 44.0645C118.264 44.0645 117.995 44.3335 117.995 44.6564C117.995 44.9793 118.264 45.2484 118.587 45.2484C118.91 45.2484 119.179 44.9793 119.179 44.6564C119.179 44.3335 118.91 44.0645 118.587 44.0645Z" fill="white"/>
<path d="M114.303 15.6284C113.98 15.6284 113.711 15.8975 113.711 16.2204C113.711 16.5433 113.98 16.8124 114.303 16.8124C114.626 16.8124 114.895 16.5433 114.895 16.2204C114.895 15.8975 114.626 15.6284 114.303 15.6284Z" fill="white"/>
<path d="M122.03 33.6025C121.708 33.6025 121.438 33.8716 121.438 34.1945C121.438 34.5174 121.708 34.7865 122.03 34.7865C122.353 34.7865 122.622 34.5174 122.622 34.1945C122.622 33.8716 122.353 33.6025 122.03 33.6025Z" fill="white"/>
<path d="M96.0807 51.265C96.4036 51.265 96.6727 50.9959 96.6727 50.673C96.6727 50.3501 96.4036 50.0811 96.0807 50.0811C95.7578 50.0811 95.4888 50.3501 95.4888 50.673C95.4888 50.9959 95.7578 51.265 96.0807 51.265Z" fill="white"/>
<path d="M106.704 67.0332C106.37 67.0332 106.112 67.3023 106.112 67.6252C106.112 67.9481 106.381 68.2172 106.704 68.2172C107.027 68.2172 107.296 67.9481 107.296 67.6252C107.296 67.3023 107.027 67.0332 106.704 67.0332Z" fill="white"/>
<path d="M126.336 40.0928C126.013 40.0928 125.744 40.3619 125.744 40.6847C125.744 41.0076 126.013 41.2767 126.336 41.2767C126.659 41.2767 126.928 41.0076 126.928 40.6847C126.928 40.3619 126.659 40.0928 126.336 40.0928Z" fill="white"/>
<path d="M88.2668 29.0068C87.9439 29.0068 87.6748 29.2652 87.6748 29.5988C87.6748 29.9325 87.9439 30.1908 88.2668 30.1908C88.5897 30.1908 88.8588 29.9217 88.8588 29.5988C88.8588 29.2759 88.5897 29.0068 88.2668 29.0068Z" fill="white"/>
<path d="M117.639 25.6489C117.306 25.6489 117.047 25.918 117.047 26.2409C117.047 26.5638 117.316 26.8329 117.639 26.8329C117.962 26.8329 118.231 26.5638 118.231 26.2409C118.231 25.918 117.962 25.6489 117.639 25.6489Z" fill="white"/>
<path d="M102.915 22.3983C103.242 22.3983 103.507 22.1333 103.507 21.8063C103.507 21.4794 103.242 21.2144 102.915 21.2144C102.588 21.2144 102.323 21.4794 102.323 21.8063C102.323 22.1333 102.588 22.3983 102.915 22.3983Z" fill="white"/>
<path d="M89.3644 14.8964C89.6981 14.8964 89.9564 14.6273 89.9564 14.3044C89.9564 13.9815 89.6873 13.7124 89.3644 13.7124C89.0415 13.7124 88.7725 13.9707 88.7725 14.3044C88.7725 14.638 89.0415 14.8964 89.3644 14.8964Z" fill="white"/>
<path d="M89.7409 51.2866C89.418 51.2866 89.1489 51.5557 89.1489 51.8786C89.1489 52.2015 89.418 52.4706 89.7409 52.4706C90.0638 52.4706 90.3329 52.2015 90.3329 51.8786C90.3329 51.5557 90.0638 51.2866 89.7409 51.2866Z" fill="white"/>
<path d="M119.986 41.3091C119.663 41.3091 119.394 41.5674 119.394 41.9011C119.394 42.2347 119.652 42.493 119.986 42.493C120.319 42.493 120.578 42.2239 120.578 41.9011C120.578 41.5782 120.308 41.3091 119.986 41.3091Z" fill="white"/>
<path d="M129.726 66.0751C130.06 66.0751 130.318 65.806 130.318 65.4831C130.318 65.1602 130.06 64.8911 129.726 64.8911C129.393 64.8911 129.134 65.1602 129.134 65.4831C129.134 65.806 129.403 66.0751 129.726 66.0751Z" fill="white"/>
<path d="M106.112 49.5752C105.789 49.5752 105.52 49.8443 105.52 50.1672C105.52 50.4901 105.789 50.7591 106.112 50.7591C106.435 50.7591 106.704 50.4901 106.704 50.1672C106.704 49.8443 106.435 49.5752 106.112 49.5752Z" fill="white"/>
<path d="M88.1696 26.8758C88.4925 26.8758 88.7616 26.6068 88.7616 26.2839C88.7616 25.961 88.4925 25.6919 88.1696 25.6919C87.8467 25.6919 87.5776 25.961 87.5776 26.2839C87.5776 26.6068 87.8467 26.8758 88.1696 26.8758Z" fill="white"/>
<path d="M102.776 16.4784C103.098 16.4784 103.368 16.2093 103.368 15.8864C103.368 15.5635 103.098 15.2944 102.776 15.2944C102.453 15.2944 102.184 15.5635 102.184 15.8864C102.184 16.2093 102.453 16.4784 102.776 16.4784Z" fill="white"/>
<path d="M76.5456 48.6494C76.2227 48.6494 75.9536 48.9185 75.9536 49.2414C75.9536 49.5643 76.2227 49.8334 76.5456 49.8334C76.8685 49.8334 77.1376 49.5643 77.1376 49.2414C77.1376 48.9185 76.8685 48.6494 76.5456 48.6494Z" fill="white"/>
<path d="M106.833 13.583C106.51 13.583 106.241 13.8521 106.241 14.175C106.241 14.4979 106.51 14.767 106.833 14.767C107.156 14.767 107.425 14.4979 107.425 14.175C107.425 13.8521 107.156 13.583 106.833 13.583Z" fill="white"/>
<path d="M82.7018 13.0449C82.3789 13.0449 82.1099 13.314 82.1099 13.6369C82.1099 13.9598 82.3789 14.2289 82.7018 14.2289C83.0247 14.2289 83.2938 13.9598 83.2938 13.6369C83.2938 13.314 83.0247 13.0449 82.7018 13.0449Z" fill="white"/>
</g>
</g>
<defs>
<clipPath id="clip0_1034_6502">
<rect width="145.346" height="121.527" fill="white" transform="translate(0.611328)"/>
</clipPath>
</defs>
</svg>
